<?xml version="1.0" standalone="no"?>
<!DOCTYPE svg PUBLIC "-//W3C//DTD SVG 20010904//EN"
 "http://www.w3.org/TR/2001/REC-SVG-20010904/DTD/svg10.dtd">
<svg version="1.0" xmlns="http://www.w3.org/2000/svg"
 width="751.000000pt" height="768.000000pt" viewBox="0 0 751.000000 768.000000"
 preserveAspectRatio="xMidYMid meet">

<g transform="translate(0.000000,768.000000) scale(0.100000,-0.100000)"
fill="#000000" stroke="none">
<path d="M3650 7596 c-74 -46 -409 -251 -745 -456 -1052 -643 -1441 -881
-1740 -1065 -159 -98 -375 -230 -480 -293 -104 -64 -202 -128 -217 -143 l-28
-27 0 -276 0 -276 29 -32 29 -33 221 -3 221 -3 0 -123 c0 -180 26 -250 115
-301 31 -19 64 -28 114 -32 l71 -6 -2 -1256 -3 -1256 -46 -6 c-58 -9 -95 -28
-136 -71 -56 -58 -67 -98 -68 -243 l0 -130 -120 -5 c-73 -3 -129 -10 -143 -18
-44 -25 -52 -67 -52 -262 l0 -180 -125 0 c-92 0 -134 -4 -155 -15 -61 -32 -60
-24 -60 -430 0 -406 -1 -398 60 -430 26 -13 433 -15 3442 -15 2689 0 3418 3
3437 13 13 6 33 24 44 38 18 25 19 45 19 394 0 347 -2 370 -20 394 -32 44 -58
51 -194 51 l-128 0 0 185 c0 266 -6 275 -191 275 l-116 0 -5 138 c-4 124 -7
142 -31 189 -39 76 -101 115 -197 125 l-25 3 -3 1256 -2 1256 69 6 c104 9 164
45 207 127 15 28 19 63 22 183 l4 147 210 0 c228 0 254 5 277 57 7 15 11 121
11 293 l0 270 -27 29 c-16 16 -84 62 -153 103 -69 41 -215 130 -325 198 -110
68 -360 221 -555 340 -195 120 -503 308 -685 420 -181 111 -442 271 -580 355
-137 83 -311 189 -385 235 -524 323 -641 390 -683 390 -35 -1 -66 -15 -177
-84z m304 -230 c1229 -748 1290 -785 2261 -1381 83 -51 254 -155 380 -232 127
-77 272 -166 323 -198 l92 -57 0 -144 0 -144 -3180 0 -3181 0 3 146 3 147 840
514 c462 283 1155 707 1540 941 385 234 720 438 744 454 25 15 47 28 49 28 3
0 59 -33 126 -74z m-1784 -2482 c0 -58 -5 -114 -10 -125 -10 -18 -26 -19 -498
-19 -366 0 -491 3 -500 12 -8 8 -12 50 -12 125 l0 113 510 0 510 0 0 -106z
m942 -42 c3 -145 4 -150 33 -197 41 -65 113 -106 200 -113 l65 -5 -2 -1256 -3
-1256 -47 -7 c-81 -11 -141 -58 -177 -138 -17 -38 -21 -66 -21 -177 l0 -133
-415 0 -415 0 0 133 c0 118 -3 137 -24 182 -39 83 -112 135 -191 135 l-35 0 0
1259 0 1258 65 6 c100 10 167 53 211 137 15 28 19 63 22 178 l4 142 363 0 363
0 4 -148z m1228 35 c0 -75 -4 -117 -12 -125 -17 -17 -979 -17 -996 0 -8 8 -12
50 -12 125 l0 113 510 0 510 0 0 -113z m942 -29 c3 -121 7 -149 25 -183 43
-81 109 -123 208 -132 l65 -6 0 -1258 0 -1259 -26 0 c-77 0 -158 -51 -197
-123 -19 -36 -22 -61 -25 -184 l-4 -143 -414 0 -414 0 0 135 c0 152 -9 187
-63 243 -41 43 -78 62 -136 71 l-46 6 -3 1258 -2 1257 34 0 c113 0 203 49 242
133 21 47 24 65 24 190 l0 137 364 0 364 0 4 -142z m1228 29 c0 -75 -4 -117
-12 -125 -17 -17 -979 -17 -996 0 -8 8 -12 50 -12 125 l0 113 510 0 510 0 0
-113z m-4640 -1602 l0 -1254 -32 -5 c-18 -3 -114 -4 -213 -3 l-180 2 -3 1245
c-1 685 0 1251 3 1258 3 9 56 12 215 12 l210 0 0 -1255z m2170 1 l0 -1254 -22
-6 c-30 -8 -293 -8 -352 0 l-46 7 0 1253 0 1254 210 0 210 0 0 -1254z m2178
-3 l-3 -1258 -212 -3 -213 -3 0 1261 0 1260 215 0 215 0 -2 -1257z m-4108
-1473 c12 -7 15 -33 15 -122 l0 -113 -467 -3 -468 -2 0 114 c0 99 2 116 18
125 22 14 881 14 902 1z m2171 0 c17 -10 19 -22 19 -125 l0 -115 -470 0 -470
0 0 115 c0 98 2 115 18 124 24 14 876 15 903 1z m2170 0 c17 -10 19 -22 19
-125 l0 -115 -465 0 -465 0 0 113 c0 75 4 117 12 125 16 16 869 17 899 2z
m329 -575 l0 -125 -2950 0 -2950 0 0 125 0 125 2950 0 2950 0 0 -125z m345
-570 l0 -230 -3295 0 -3295 0 -3 220 c-1 121 0 225 2 232 4 11 637 13 3298 11
l3293 -3 0 -230z"/>
<path d="M3781 7026 c-35 -19 -50 -54 -51 -112 0 -52 0 -52 -37 -59 -103 -19
-223 -107 -271 -200 -24 -44 -27 -62 -27 -145 0 -86 3 -100 29 -148 61 -109
153 -164 365 -216 77 -19 157 -44 178 -55 133 -68 130 -207 -5 -269 -77 -35
-183 -36 -260 -2 -61 26 -85 53 -107 119 -27 82 -86 116 -149 86 -58 -28 -71
-94 -37 -185 40 -104 139 -187 261 -217 l60 -15 0 -52 c0 -61 19 -92 66 -112
29 -12 39 -12 68 0 47 20 66 51 66 112 l0 52 46 11 c111 28 209 101 260 193
26 48 29 62 29 148 0 84 -3 101 -27 145 -34 64 -98 126 -167 160 -30 15 -115
43 -190 62 -204 51 -262 82 -280 150 -38 137 146 241 329 187 62 -18 130 -78
130 -114 0 -97 115 -147 182 -79 29 28 30 34 25 88 -12 136 -118 250 -271 291
l-61 17 -6 54 c-7 70 -15 87 -50 104 -34 18 -66 19 -98 1z"/>
</g>
</svg>
